# xmcd
#
# Track frame offsets:
# 150
# 33063
# 57936
# 90789
# 104742
# 135677
# 161150
# 184223
#
# Disc length: 2843 seconds
#
#
# Revision: 0
# Processed by: cddbd v1.5.1PL2 Copyright (c) Steve Scherf et al.
# Submitted via: FreeRIP 2.60 
#
DISCID=630b1908
DTITLE=jimi sofo - rainbow sightings
DYEAR=2004
DGENRE=
TTITLE0=angels from behind
TTITLE1=soulsoother
TTITLE2=ancient cycle
TTITLE3=puddles (prelude)
TTITLE4=puddles of light
TTITLE5=rainbow sightings
TTITLE6=wildflower
TTITLE7=in light of the truth
EXTD=
EXTT0=
EXTT1=
EXTT2=
EXTT3=
EXTT4=
EXTT5=
EXTT6=
EXTT7=
PLAYORDER=
